<mxfile host="app.diagrams.net" modified="2024-04-29T01:44:10.975Z" agent="Mozilla/5.0 (Windows NT 10.0; Win64; x64) AppleWebKit/537.36 (KHTML, like Gecko) Chrome/120.0.0.0 Safari/537.36" version="24.2.7" etag="Pp6Gyxs7sRm49sxUrpdM" type="github">
  <diagram name="第 1 页" id="Oi9lxVLDmaP7N0kQnI4Y">
    <mxGraphModel>
      <root>
        <mxCell id="0" />
        <mxCell id="1" parent="0" />
      </root>
    </mxGraphModel>
  </diagram>
</mxfile>
